<?xml version="1.0" standalone="no"?>
<!DOCTYPE svg PUBLIC "-//W3C//DTD SVG 20010904//EN"
 "http://www.w3.org/TR/2001/REC-SVG-20010904/DTD/svg10.dtd">
<svg version="1.0" xmlns="http://www.w3.org/2000/svg"
 width="318.000000pt" height="318.000000pt" viewBox="0 0 318.000000 318.000000"
 preserveAspectRatio="xMidYMid meet">
<metadata>
Created by potrace 1.11, written by Peter Selinger 2001-2013
</metadata>
<g transform="translate(0.000000,318.000000) scale(0.100000,-0.100000)"
fill="#000000" stroke="none">
<path d="M0 1585 l0 -955 1590 0 1590 0 0 955 0 955 -1590 0 -1590 0 0 -955z
m1470 555 l0 -150 -240 0 -241 0 3 -122 3 -123 238 -3 237 -2 0 -145 0 -145
-237 -2 -238 -3 -3 -283 -2 -282 -135 0 -135 0 0 705 0 705 375 0 375 0 0
-150z m714 135 c167 -35 284 -163 317 -345 32 -178 -73 -375 -236 -446 -46
-20 -64 -33 -60 -43 3 -7 77 -134 165 -282 88 -148 160 -271 160 -274 0 -3
-69 -5 -152 -5 l-153 0 -71 128 c-40 70 -102 181 -139 247 -37 66 -78 137 -91
158 l-24 37 -145 0 -145 0 0 145 0 145 260 0 c276 0 304 4 344 49 11 12 21 41
24 70 4 45 2 52 -31 87 l-35 39 -281 3 -281 3 0 149 0 150 253 0 c183 0 271
-4 321 -15z"/>
</g>
</svg>
