<svg xmlns="http://www.w3.org/2000/svg" viewBox="0 0 45.48 35.95">
  <defs>
    <style>
      .cls-1 {
        fill: #9fca4d;
      }

      .cls-2 {
        fill: #fff;
      }
    </style>
  </defs>
  <title>3</title>
  <g id="图层_13" data-name="图层 13">
    <g>
      <path class="cls-1" d="M107.14,453.35a118.37,118.37,0,0,0,28.65,0,115.46,115.46,0,0,1-4.8,21.72,55,55,0,0,0,13.22-3.35c-6.38,7.39-14.51,12.76-22.75,17.58-8.23-4.82-16.36-10.18-22.74-17.58a54.49,54.49,0,0,0,13.22,3.35A115.46,115.46,0,0,1,107.14,453.35Z" transform="translate(-98.72 -453.35)"/>
      <g>
        <path class="cls-2" d="M118.59,477.49l-1.65-2.85h-1.23v2.85H115V470.9h2c1.35,0,2.28.47,2.28,1.82a1.78,1.78,0,0,1-1.53,1.85l1.7,2.92ZM115.71,474h1.15c1.06,0,1.64-.42,1.64-1.31s-.58-1.22-1.64-1.22h-1.15Z" transform="translate(-98.72 -453.35)"/>
        <path class="cls-2" d="M121.66,474.9l-2-4h.79l.89,1.9c.22.49.42.95.66,1.45h0c.23-.5.46-1,.67-1.45l.89-1.9h.76l-2,4v2.59h-.74Z" transform="translate(-98.72 -453.35)"/>
        <path class="cls-2" d="M126.56,474.45h-1.83v-.55h1.83v-2h.6v2H129v.55h-1.83v2h-.6Z" transform="translate(-98.72 -453.35)"/>
      </g>
    </g>
  </g>
</svg>
