<?xml version="1.0" encoding="utf-8"?>
<!-- Generator: Adobe Illustrator 16.0.0, SVG Export Plug-In . SVG Version: 6.00 Build 0)  -->
<!DOCTYPE svg PUBLIC "-//W3C//DTD SVG 1.1//EN" "http://www.w3.org/Graphics/SVG/1.1/DTD/svg11.dtd">
<svg version="1.1" id="图层_1" xmlns="http://www.w3.org/2000/svg" xmlns:xlink="http://www.w3.org/1999/xlink" x="0px" y="0px"
	 width="12px" height="24px" viewBox="14.667 8 12 24" enable-background="new 14.667 8 12 24" xml:space="preserve">
<g>
	<path fill="#005E8C" d="M26.667,30c0,1.104-0.896,2-2,2h-8c-1.104,0-2-0.896-2-2V10c0-1.104,0.896-2,2-2h8c1.104,0,2,0.896,2,2V30z
		"/>
	<path fill="#FFFFFF" d="M21.667,26c0,0.553-0.446,1-1,1l0,0c-0.553,0-1-0.447-1-1V14c0-0.553,0.447-1,1-1l0,0c0.554,0,1,0.447,1,1
		V26z"/>
</g>
</svg>
